<?xml version="1.0" encoding="iso-8859-1"?>
<!-- Generator: Adobe Illustrator 18.0.0, SVG Export Plug-In . SVG Version: 6.00 Build 0)  -->
<!DOCTYPE svg PUBLIC "-//W3C//DTD SVG 1.1//EN" "http://www.w3.org/Graphics/SVG/1.1/DTD/svg11.dtd">
<svg xmlns="http://www.w3.org/2000/svg" xmlns:xlink="http://www.w3.org/1999/xlink" version="1.1" id="Capa_1" x="0px" y="0px" viewBox="0 0 299 299" style="enable-background:new 0 0 299 299;" xml:space="preserve" width="512px" height="512px">
<path d="M266.427,143.533c-2.322-2.322-5.639-3.357-8.869-2.766c-0.36,0.066-4.412,0.812-10.711,2.13  c5.66-20.477,9.203-39.688,9.39-40.708c0.591-3.232-0.442-6.548-2.766-8.871c-2.323-2.322-5.64-3.354-8.87-2.766  c-0.593,0.108-6.156,1.136-14.251,2.899c4.039-15.22,6.532-28.734,6.668-29.478c0.591-3.231-0.442-6.548-2.766-8.871  c-2.323-2.322-5.64-3.356-8.87-2.766c-4.411,0.807-17.013,3.232-30.717,6.95C178.445,31.667,158.295,5.072,157.443,3.95  C155.552,1.462,152.606,0,149.48,0c-3.125,0-6.071,1.462-7.962,3.95c-0.852,1.12-21,27.71-37.22,55.328  c-13.69-3.712-26.273-6.134-30.682-6.94c-3.23-0.591-6.547,0.443-8.87,2.766c-2.323,2.323-3.357,5.639-2.766,8.871  c0.132,0.719,2.624,14.242,6.667,29.478c-8.091-1.764-13.654-2.79-14.25-2.899c-3.231-0.588-6.547,0.443-8.87,2.766  c-2.323,2.322-3.356,5.639-2.766,8.871c0.183,1,3.729,20.219,9.392,40.708c-6.3-1.318-10.352-2.064-10.712-2.13  c-3.231-0.591-6.547,0.443-8.87,2.766c-2.323,2.323-3.356,5.639-2.766,8.87c0.147,0.805,3.671,19.958,9.42,41.59  c8.154,30.685,16.306,49.788,24.919,58.402c9.761,9.76,28.068,14.505,55.97,14.505c7.442,0,14.236-0.356,19.385-0.738V289  c0,5.522,4.478,10,10,10c5.523,0,10-4.478,10-10v-22.838c5.148,0.382,11.941,0.738,19.385,0.738c0.001,0,0,0,0.002,0  c27.898,0,46.207-4.745,55.968-14.505c8.614-8.614,16.765-27.718,24.919-58.402c5.75-21.632,9.273-40.785,9.42-41.59  C269.785,149.172,268.752,145.856,266.427,143.533z M224.507,147.996c-2.777,0.689-5.635,1.42-8.539,2.191  c-2.789,0.741-5.479,1.482-8.077,2.224c-3.721-9.105-8.571-18.935-13.787-28.607c13.325-4.466,28.551-8.163,39.45-10.565  C231.43,122.869,228.296,135.885,224.507,147.996z M149.5,187.306c-2.148-4.742-4.797-8.931-8.065-12.199  c-5.66-5.659-15.848-11.119-30.873-16.511c9.948-23.773,28.427-53.543,39.123-69.997c10.677,16.423,29.104,46.108,39.072,69.885  c-15.197,5.429-25.492,10.925-31.191,16.623C154.297,178.375,151.648,182.564,149.5,187.306z M208.024,98.82  c-7.948,2.109-16.265,4.561-23.929,7.275c-3.849-6.538-7.638-12.711-11.09-18.194c8.895-4.336,25.087-9.166,41.27-12.856  C212.682,82.041,210.542,90.648,208.024,98.82z M149.48,26.92c6.726,9.391,16.656,23.746,25.581,38.54  c-4.707,1.747-9.12,3.641-12.917,5.665c-2.399-3.601-3.94-5.839-4.233-6.263c-1.867-2.703-4.942-4.316-8.228-4.316  c-3.285,0-6.361,1.613-8.227,4.316c-0.299,0.433-1.878,2.726-4.329,6.406c-3.865-2.083-8.391-4.028-13.222-5.821  C132.821,50.672,142.754,36.313,149.48,26.92z M84.724,75.042c16.351,3.727,32.717,8.619,41.552,12.993  c-3.448,5.481-7.229,11.644-11.069,18.169c-7.746-2.758-16.174-5.244-24.226-7.382C88.466,90.657,86.319,82.045,84.724,75.042z   M65.447,113.236c10.981,2.419,26.354,6.155,39.763,10.672c-5.213,9.672-10.057,19.498-13.771,28.597  c-2.699-0.772-5.501-1.545-8.407-2.317c-2.903-0.771-5.76-1.502-8.536-2.19C70.71,135.894,67.571,122.873,65.447,113.236z   M138.327,246.189c-4.79,0.361-11.227,0.711-18.212,0.711c-29.947,0-39.228-6.047-41.827-8.648  c-9.377-9.376-19.742-46.354-25.895-74.898c28.545,6.152,65.522,16.518,74.898,25.894  C136.274,198.23,138.73,226.065,138.327,246.189z M220.712,238.253c-2.6,2.601-11.881,8.648-41.827,8.648  c-6.986,0-13.425-0.35-18.215-0.711c-0.411-20.946,2.448-48.352,11.038-56.941c9.376-9.377,46.353-19.742,74.899-25.894  C240.455,191.899,230.089,228.877,220.712,238.253z" fill="#FFFFFF"/>
<g>
</g>
<g>
</g>
<g>
</g>
<g>
</g>
<g>
</g>
<g>
</g>
<g>
</g>
<g>
</g>
<g>
</g>
<g>
</g>
<g>
</g>
<g>
</g>
<g>
</g>
<g>
</g>
<g>
</g>
</svg>
