<?xml version="1.0" encoding="iso-8859-1"?>
<!-- Generator: Adobe Illustrator 18.0.0, SVG Export Plug-In . SVG Version: 6.00 Build 0)  -->
<!DOCTYPE svg PUBLIC "-//W3C//DTD SVG 1.1//EN" "http://www.w3.org/Graphics/SVG/1.1/DTD/svg11.dtd">
<svg xmlns="http://www.w3.org/2000/svg" xmlns:xlink="http://www.w3.org/1999/xlink" version="1.1" id="Capa_1" x="0px" y="0px" viewBox="0 0 300.5 300.5" style="enable-background:new 0 0 300.5 300.5;" xml:space="preserve" width="512px" height="512px">
<path d="M222.906,130.036c-2.323-2.321-5.639-3.355-8.87-2.766c-0.486,0.089-1.037,0.191-1.616,0.301  c7.045-16.108,11.702-39.332,13.252-47.806c0.591-3.231-0.442-6.547-2.766-8.87c-2.323-2.321-5.639-3.355-8.87-2.766  c-1.165,0.213-2.62,0.488-4.286,0.816V26.5c0-5.522-4.477-10-10-10c-5.522,0-10,4.478-10,10v47.034  c-1.791,0.475-3.604,0.975-5.421,1.501c1.427-3.889,2.206-8.088,2.206-12.466c0-16.363-21.476-48.725-28.058-58.253  C156.61,1.613,153.535,0,150.249,0c-3.285,0-6.361,1.613-8.227,4.316c-6.582,9.529-28.057,41.89-28.057,58.253  c0,4.378,0.779,8.577,2.206,12.466c-1.818-0.526-3.631-1.026-5.422-1.501V26.5c0-5.522-4.478-10-10-10c-5.522,0-10,4.478-10,10  v42.446c-1.665-0.329-3.121-0.604-4.285-0.816c-3.229-0.589-6.547,0.444-8.87,2.766c-2.323,2.323-3.356,5.639-2.766,8.87  c1.55,8.474,6.207,31.697,13.252,47.806c-0.579-0.109-1.13-0.212-1.616-0.301c-3.229-0.589-6.547,0.444-8.87,2.766  c-2.323,2.323-3.356,5.639-2.766,8.87c1.55,8.474,6.207,31.697,13.251,47.806c-0.578-0.109-1.129-0.212-1.615-0.301  c-3.229-0.589-6.547,0.444-8.87,2.766c-2.323,2.323-3.356,5.639-2.766,8.87c2.084,11.393,9.781,49.461,21.352,61.031  c6.854,6.853,15.965,10.627,25.657,10.627c6.581,0,12.892-1.744,18.412-5.006V290.5c0,5.522,4.478,10,10,10c5.523,0,10-4.478,10-10  v-25.802c5.521,3.263,11.832,5.007,18.413,5.007c9.692,0,18.804-3.774,25.657-10.627c11.57-11.57,19.268-49.639,21.352-61.031  c0.591-3.232-0.442-6.547-2.766-8.87c-2.323-2.321-5.639-3.355-8.87-2.766c-0.486,0.089-1.037,0.191-1.615,0.301  c7.044-16.108,11.701-39.332,13.251-47.806C226.262,135.675,225.229,132.359,222.906,130.036z M133.354,185.795  c-3.076,3.076-7.166,4.77-11.517,4.77c-4.35,0-8.439-1.693-11.515-4.77c-3.692-3.692-8.822-19.377-12.706-35.736  c16.359,3.884,32.044,9.014,35.736,12.705C139.703,169.114,139.703,179.446,133.354,185.795z M133.353,103.624  c6.35,6.349,6.35,16.681,0.001,23.03c-3.076,3.076-7.166,4.77-11.517,4.77c-4.35,0-8.439-1.693-11.515-4.769  c-3.692-3.693-8.822-19.378-12.706-35.737C113.976,94.802,129.661,99.932,133.353,103.624z M202.883,90.918  c-3.884,16.359-9.014,32.044-12.706,35.736c-3.075,3.076-7.165,4.77-11.515,4.77c-4.351,0-8.44-1.693-11.516-4.769  c-6.35-6.351-6.35-16.683-0.001-23.031C170.839,99.932,186.524,94.802,202.883,90.918z M167.146,162.765  c3.693-3.692,19.38-8.823,35.741-12.707c-3.88,16.354-9.011,32.038-12.71,35.737c-3.075,3.076-7.165,4.77-11.515,4.77  c-4.351,0-8.44-1.693-11.516-4.77C160.797,179.446,160.797,169.114,167.146,162.765z M150.249,28.315  c8.822,14.315,16.285,29.032,16.285,34.254c0,8.979-7.306,16.285-16.285,16.285c-8.979,0-16.284-7.306-16.284-16.285  C133.965,57.348,141.428,42.63,150.249,28.315z M133.354,244.936c-3.076,3.076-7.166,4.77-11.517,4.77  c-4.35,0-8.439-1.693-11.515-4.77c-3.692-3.692-8.822-19.377-12.706-35.736c16.359,3.884,32.044,9.014,35.736,12.705  C139.703,228.255,139.703,238.587,133.354,244.936z M190.177,244.936c-3.075,3.076-7.165,4.77-11.515,4.77  c-4.351,0-8.44-1.693-11.516-4.77c-6.35-6.349-6.35-16.681-0.001-23.03c3.693-3.692,19.38-8.823,35.741-12.707  C199.007,225.553,193.876,241.236,190.177,244.936z" fill="#FFFFFF"/>
<g>
</g>
<g>
</g>
<g>
</g>
<g>
</g>
<g>
</g>
<g>
</g>
<g>
</g>
<g>
</g>
<g>
</g>
<g>
</g>
<g>
</g>
<g>
</g>
<g>
</g>
<g>
</g>
<g>
</g>
</svg>
