<?xml version="1.0" encoding="iso-8859-1"?>
<!-- Generator: Adobe Illustrator 16.0.0, SVG Export Plug-In . SVG Version: 6.00 Build 0)  -->
<!DOCTYPE svg PUBLIC "-//W3C//DTD SVG 1.1//EN" "http://www.w3.org/Graphics/SVG/1.1/DTD/svg11.dtd">
<svg xmlns="http://www.w3.org/2000/svg" xmlns:xlink="http://www.w3.org/1999/xlink" version="1.1" id="Capa_1" x="0px" y="0px" width="512px" height="512px" viewBox="0 0 46.198 46.198" style="enable-background:new 0 0 46.198 46.198;" xml:space="preserve">
<g>
	<path d="M41.419,28.627l-4.239-2.486v-6.082l4.239-2.486c2.145-1.258,2.863-4.015,1.604-6.158c-1.258-2.143-4.013-2.86-6.157-1.604   l-4.28,2.511L27.6,9.439V4.5c0-2.485-2.016-4.5-4.5-4.5s-4.5,2.015-4.5,4.5v4.938l-4.988,2.88l-4.28-2.51   C7.186,8.551,4.43,9.269,3.173,11.412c-1.257,2.145-0.539,4.9,1.605,6.158l4.24,2.486v6.083l-4.24,2.485   c-2.144,1.259-2.863,4.015-1.605,6.158c0.838,1.428,2.341,2.226,3.886,2.226c0.773,0,1.557-0.201,2.272-0.619l4.28-2.511   l4.988,2.88v4.94c0,2.485,2.015,4.5,4.5,4.5s4.5-2.015,4.5-4.5V36.76l4.987-2.879l4.28,2.51c0.715,0.418,1.498,0.617,2.271,0.617   c1.544,0,3.048-0.796,3.886-2.225C44.283,32.643,43.563,29.885,41.419,28.627z M18.019,26.034v-5.867l5.08-2.933l5.081,2.933v5.867   l-5.081,2.933L18.019,26.034z" fill="#FFFFFF"/>
</g>
<g>
</g>
<g>
</g>
<g>
</g>
<g>
</g>
<g>
</g>
<g>
</g>
<g>
</g>
<g>
</g>
<g>
</g>
<g>
</g>
<g>
</g>
<g>
</g>
<g>
</g>
<g>
</g>
<g>
</g>
</svg>
